<mxfile host="app.diagrams.net" modified="2021-06-25T09:52:54.500Z" agent="5.0 (Macintosh)" etag="A_Pf-i_EYF_g8fBCh3aD" version="14.1.8" type="github">
  <diagram id="KfIwTdMWl-8zuWlpmmqX" name="Page-1">
    <mxGraphModel dx="1553" dy="1653" grid="1" gridSize="10" guides="1" tooltips="1" connect="1" arrows="1" fold="1" page="1" pageScale="1" pageWidth="827" pageHeight="1169" math="0" shadow="0">
      <root>
        <mxCell id="0" />
        <mxCell id="1" parent="0" />
        <mxCell id="02wQNuSsJwhFSokIO_tN-1" value="" style="ellipse;whiteSpace=wrap;html=1;fillColor=#f5f5f5;strokeColor=#666666;fontColor=#333333;" parent="1" vertex="1">
          <mxGeometry x="60" y="167.5" width="880" height="570" as="geometry" />
        </mxCell>
        <mxCell id="02wQNuSsJwhFSokIO_tN-2" value="&lt;div style=&quot;font-size: 14px&quot;&gt;Cluster&lt;/div&gt;" style="text;html=1;strokeColor=none;fillColor=none;align=center;verticalAlign=middle;whiteSpace=wrap;rounded=0;" parent="1" vertex="1">
          <mxGeometry x="485" y="170" width="40" height="20" as="geometry" />
        </mxCell>
        <mxCell id="02wQNuSsJwhFSokIO_tN-4" value="" style="rounded=0;whiteSpace=wrap;html=1;fillColor=#e1d5e7;strokeColor=#9673a6;" parent="1" vertex="1">
          <mxGeometry x="200" y="250" width="610" height="140" as="geometry" />
        </mxCell>
        <mxCell id="02wQNuSsJwhFSokIO_tN-45" style="edgeStyle=orthogonalEdgeStyle;rounded=0;orthogonalLoop=1;jettySize=auto;html=1;exitX=0.5;exitY=1;exitDx=0;exitDy=0;entryX=0.451;entryY=0.001;entryDx=0;entryDy=0;entryPerimeter=0;" parent="1" source="02wQNuSsJwhFSokIO_tN-5" target="02wQNuSsJwhFSokIO_tN-39" edge="1">
          <mxGeometry relative="1" as="geometry">
            <Array as="points">
              <mxPoint x="265" y="400" />
              <mxPoint x="505" y="400" />
            </Array>
          </mxGeometry>
        </mxCell>
        <mxCell id="02wQNuSsJwhFSokIO_tN-5" value="" style="rounded=0;whiteSpace=wrap;html=1;fillColor=#f8cecc;strokeColor=#b85450;" parent="1" vertex="1">
          <mxGeometry x="210" y="260" width="110" height="120" as="geometry" />
        </mxCell>
        <mxCell id="02wQNuSsJwhFSokIO_tN-47" style="edgeStyle=orthogonalEdgeStyle;rounded=0;orthogonalLoop=1;jettySize=auto;html=1;exitX=0.5;exitY=1;exitDx=0;exitDy=0;entryX=0.45;entryY=0.004;entryDx=0;entryDy=0;entryPerimeter=0;" parent="1" source="02wQNuSsJwhFSokIO_tN-6" target="02wQNuSsJwhFSokIO_tN-39" edge="1">
          <mxGeometry relative="1" as="geometry">
            <Array as="points">
              <mxPoint x="385" y="400" />
              <mxPoint x="505" y="400" />
            </Array>
          </mxGeometry>
        </mxCell>
        <mxCell id="02wQNuSsJwhFSokIO_tN-6" value="" style="rounded=0;whiteSpace=wrap;html=1;fillColor=#f8cecc;strokeColor=#b85450;" parent="1" vertex="1">
          <mxGeometry x="330" y="260" width="110" height="120" as="geometry" />
        </mxCell>
        <mxCell id="02wQNuSsJwhFSokIO_tN-51" style="edgeStyle=orthogonalEdgeStyle;rounded=0;orthogonalLoop=1;jettySize=auto;html=1;exitX=0.5;exitY=1;exitDx=0;exitDy=0;entryX=0.451;entryY=0.002;entryDx=0;entryDy=0;entryPerimeter=0;" parent="1" source="02wQNuSsJwhFSokIO_tN-7" target="02wQNuSsJwhFSokIO_tN-39" edge="1">
          <mxGeometry relative="1" as="geometry">
            <Array as="points">
              <mxPoint x="505" y="450" />
              <mxPoint x="505" y="450" />
            </Array>
          </mxGeometry>
        </mxCell>
        <mxCell id="02wQNuSsJwhFSokIO_tN-77" style="edgeStyle=orthogonalEdgeStyle;rounded=0;orthogonalLoop=1;jettySize=auto;html=1;exitX=0.5;exitY=1;exitDx=0;exitDy=0;entryX=0;entryY=0.25;entryDx=0;entryDy=0;startArrow=none;startFill=0;" parent="1" source="02wQNuSsJwhFSokIO_tN-7" target="02wQNuSsJwhFSokIO_tN-70" edge="1">
          <mxGeometry relative="1" as="geometry">
            <Array as="points">
              <mxPoint x="505" y="438" />
              <mxPoint x="640" y="438" />
            </Array>
          </mxGeometry>
        </mxCell>
        <mxCell id="02wQNuSsJwhFSokIO_tN-7" value="" style="rounded=0;whiteSpace=wrap;html=1;fillColor=#f8cecc;strokeColor=#b85450;" parent="1" vertex="1">
          <mxGeometry x="450" y="260" width="110" height="120" as="geometry" />
        </mxCell>
        <mxCell id="02wQNuSsJwhFSokIO_tN-52" style="edgeStyle=orthogonalEdgeStyle;rounded=0;orthogonalLoop=1;jettySize=auto;html=1;exitX=0.5;exitY=1;exitDx=0;exitDy=0;entryX=0.451;entryY=0.002;entryDx=0;entryDy=0;entryPerimeter=0;" parent="1" source="02wQNuSsJwhFSokIO_tN-8" target="02wQNuSsJwhFSokIO_tN-39" edge="1">
          <mxGeometry relative="1" as="geometry">
            <Array as="points">
              <mxPoint x="625" y="400" />
              <mxPoint x="505" y="400" />
            </Array>
          </mxGeometry>
        </mxCell>
        <mxCell id="02wQNuSsJwhFSokIO_tN-8" value="" style="rounded=0;whiteSpace=wrap;html=1;fillColor=#f8cecc;strokeColor=#b85450;" parent="1" vertex="1">
          <mxGeometry x="570" y="260" width="110" height="120" as="geometry" />
        </mxCell>
        <mxCell id="02wQNuSsJwhFSokIO_tN-53" style="edgeStyle=orthogonalEdgeStyle;rounded=0;orthogonalLoop=1;jettySize=auto;html=1;exitX=0.5;exitY=1;exitDx=0;exitDy=0;entryX=0.443;entryY=-0.008;entryDx=0;entryDy=0;entryPerimeter=0;" parent="1" source="02wQNuSsJwhFSokIO_tN-9" target="02wQNuSsJwhFSokIO_tN-39" edge="1">
          <mxGeometry relative="1" as="geometry">
            <Array as="points">
              <mxPoint x="745" y="400" />
              <mxPoint x="505" y="400" />
              <mxPoint x="505" y="450" />
            </Array>
          </mxGeometry>
        </mxCell>
        <mxCell id="02wQNuSsJwhFSokIO_tN-9" value="" style="rounded=0;whiteSpace=wrap;html=1;fillColor=#f8cecc;strokeColor=#b85450;" parent="1" vertex="1">
          <mxGeometry x="690" y="260" width="110" height="120" as="geometry" />
        </mxCell>
        <mxCell id="02wQNuSsJwhFSokIO_tN-10" value="&lt;div&gt;Monitor&lt;/div&gt;" style="text;html=1;strokeColor=none;fillColor=none;align=center;verticalAlign=middle;whiteSpace=wrap;rounded=0;" parent="1" vertex="1">
          <mxGeometry x="220" y="260" width="40" height="20" as="geometry" />
        </mxCell>
        <mxCell id="02wQNuSsJwhFSokIO_tN-11" value="&lt;div&gt;Monitor&lt;/div&gt;" style="text;html=1;strokeColor=none;fillColor=none;align=center;verticalAlign=middle;whiteSpace=wrap;rounded=0;" parent="1" vertex="1">
          <mxGeometry x="340" y="260" width="40" height="20" as="geometry" />
        </mxCell>
        <mxCell id="02wQNuSsJwhFSokIO_tN-12" value="&lt;div&gt;Monitor&lt;/div&gt;" style="text;html=1;strokeColor=none;fillColor=none;align=center;verticalAlign=middle;whiteSpace=wrap;rounded=0;" parent="1" vertex="1">
          <mxGeometry x="460" y="260" width="40" height="20" as="geometry" />
        </mxCell>
        <mxCell id="02wQNuSsJwhFSokIO_tN-13" value="&lt;div&gt;Monitor&lt;/div&gt;" style="text;html=1;strokeColor=none;fillColor=none;align=center;verticalAlign=middle;whiteSpace=wrap;rounded=0;" parent="1" vertex="1">
          <mxGeometry x="580" y="260" width="40" height="20" as="geometry" />
        </mxCell>
        <mxCell id="02wQNuSsJwhFSokIO_tN-14" value="&lt;div&gt;Monitor&lt;/div&gt;" style="text;html=1;strokeColor=none;fillColor=none;align=center;verticalAlign=middle;whiteSpace=wrap;rounded=0;" parent="1" vertex="1">
          <mxGeometry x="700" y="260" width="40" height="20" as="geometry" />
        </mxCell>
        <mxCell id="02wQNuSsJwhFSokIO_tN-58" style="edgeStyle=orthogonalEdgeStyle;rounded=0;orthogonalLoop=1;jettySize=auto;html=1;exitX=0.5;exitY=1;exitDx=0;exitDy=0;entryX=0.5;entryY=0;entryDx=0;entryDy=0;" parent="1" source="02wQNuSsJwhFSokIO_tN-15" target="02wQNuSsJwhFSokIO_tN-18" edge="1">
          <mxGeometry relative="1" as="geometry" />
        </mxCell>
        <mxCell id="02wQNuSsJwhFSokIO_tN-15" value="cAdvisor" style="rounded=0;whiteSpace=wrap;html=1;fillColor=#fff2cc;strokeColor=#d6b656;" parent="1" vertex="1">
          <mxGeometry x="215" y="280" width="95" height="40" as="geometry" />
        </mxCell>
        <mxCell id="02wQNuSsJwhFSokIO_tN-18" value="cAdvisor" style="rounded=0;whiteSpace=wrap;html=1;fillColor=#fff2cc;strokeColor=#d6b656;" parent="1" vertex="1">
          <mxGeometry x="215" y="330" width="95" height="40" as="geometry" />
        </mxCell>
        <mxCell id="02wQNuSsJwhFSokIO_tN-57" style="edgeStyle=orthogonalEdgeStyle;rounded=0;orthogonalLoop=1;jettySize=auto;html=1;exitX=0.5;exitY=1;exitDx=0;exitDy=0;entryX=0.5;entryY=0;entryDx=0;entryDy=0;" parent="1" source="02wQNuSsJwhFSokIO_tN-27" target="02wQNuSsJwhFSokIO_tN-28" edge="1">
          <mxGeometry relative="1" as="geometry" />
        </mxCell>
        <mxCell id="02wQNuSsJwhFSokIO_tN-27" value="cAdvisor" style="rounded=0;whiteSpace=wrap;html=1;fillColor=#fff2cc;strokeColor=#d6b656;" parent="1" vertex="1">
          <mxGeometry x="340" y="280" width="95" height="40" as="geometry" />
        </mxCell>
        <mxCell id="02wQNuSsJwhFSokIO_tN-28" value="cAdvisor" style="rounded=0;whiteSpace=wrap;html=1;fillColor=#fff2cc;strokeColor=#d6b656;" parent="1" vertex="1">
          <mxGeometry x="340" y="330" width="95" height="40" as="geometry" />
        </mxCell>
        <mxCell id="02wQNuSsJwhFSokIO_tN-56" style="edgeStyle=orthogonalEdgeStyle;rounded=0;orthogonalLoop=1;jettySize=auto;html=1;exitX=0.5;exitY=1;exitDx=0;exitDy=0;entryX=0.5;entryY=0;entryDx=0;entryDy=0;" parent="1" source="02wQNuSsJwhFSokIO_tN-29" target="02wQNuSsJwhFSokIO_tN-30" edge="1">
          <mxGeometry relative="1" as="geometry" />
        </mxCell>
        <mxCell id="02wQNuSsJwhFSokIO_tN-29" value="cAdvisor" style="rounded=0;whiteSpace=wrap;html=1;fillColor=#fff2cc;strokeColor=#d6b656;" parent="1" vertex="1">
          <mxGeometry x="457.5" y="280" width="95" height="40" as="geometry" />
        </mxCell>
        <mxCell id="02wQNuSsJwhFSokIO_tN-30" value="cAdvisor" style="rounded=0;whiteSpace=wrap;html=1;fillColor=#fff2cc;strokeColor=#d6b656;" parent="1" vertex="1">
          <mxGeometry x="457.5" y="330" width="95" height="40" as="geometry" />
        </mxCell>
        <mxCell id="02wQNuSsJwhFSokIO_tN-55" style="edgeStyle=orthogonalEdgeStyle;rounded=0;orthogonalLoop=1;jettySize=auto;html=1;exitX=0.5;exitY=1;exitDx=0;exitDy=0;entryX=0.5;entryY=0;entryDx=0;entryDy=0;" parent="1" source="02wQNuSsJwhFSokIO_tN-31" target="02wQNuSsJwhFSokIO_tN-32" edge="1">
          <mxGeometry relative="1" as="geometry" />
        </mxCell>
        <mxCell id="02wQNuSsJwhFSokIO_tN-31" value="cAdvisor" style="rounded=0;whiteSpace=wrap;html=1;fillColor=#fff2cc;strokeColor=#d6b656;" parent="1" vertex="1">
          <mxGeometry x="577.5" y="280" width="95" height="40" as="geometry" />
        </mxCell>
        <mxCell id="02wQNuSsJwhFSokIO_tN-32" value="cAdvisor" style="rounded=0;whiteSpace=wrap;html=1;fillColor=#fff2cc;strokeColor=#d6b656;" parent="1" vertex="1">
          <mxGeometry x="577.5" y="330" width="95" height="40" as="geometry" />
        </mxCell>
        <mxCell id="02wQNuSsJwhFSokIO_tN-54" style="edgeStyle=orthogonalEdgeStyle;rounded=0;orthogonalLoop=1;jettySize=auto;html=1;exitX=0.5;exitY=1;exitDx=0;exitDy=0;entryX=0.5;entryY=0;entryDx=0;entryDy=0;" parent="1" source="02wQNuSsJwhFSokIO_tN-33" target="02wQNuSsJwhFSokIO_tN-34" edge="1">
          <mxGeometry relative="1" as="geometry" />
        </mxCell>
        <mxCell id="02wQNuSsJwhFSokIO_tN-33" value="cAdvisor" style="rounded=0;whiteSpace=wrap;html=1;fillColor=#fff2cc;strokeColor=#d6b656;" parent="1" vertex="1">
          <mxGeometry x="697.5" y="280" width="95" height="40" as="geometry" />
        </mxCell>
        <mxCell id="02wQNuSsJwhFSokIO_tN-34" value="cAdvisor" style="rounded=0;whiteSpace=wrap;html=1;fillColor=#fff2cc;strokeColor=#d6b656;" parent="1" vertex="1">
          <mxGeometry x="697.5" y="330" width="95" height="40" as="geometry" />
        </mxCell>
        <mxCell id="02wQNuSsJwhFSokIO_tN-35" value="" style="rounded=0;whiteSpace=wrap;html=1;fillColor=#f8cecc;strokeColor=#b85450;" parent="1" vertex="1">
          <mxGeometry x="120" y="400" width="110" height="110" as="geometry" />
        </mxCell>
        <mxCell id="02wQNuSsJwhFSokIO_tN-85" style="edgeStyle=orthogonalEdgeStyle;rounded=0;orthogonalLoop=1;jettySize=auto;html=1;exitX=1;exitY=0.5;exitDx=0;exitDy=0;entryX=0;entryY=0.75;entryDx=0;entryDy=0;startArrow=classic;startFill=1;endArrow=none;endFill=0;" parent="1" source="02wQNuSsJwhFSokIO_tN-36" target="02wQNuSsJwhFSokIO_tN-70" edge="1">
          <mxGeometry relative="1" as="geometry">
            <Array as="points">
              <mxPoint x="360" y="435" />
              <mxPoint x="360" y="560" />
              <mxPoint x="630" y="560" />
              <mxPoint x="630" y="468" />
            </Array>
          </mxGeometry>
        </mxCell>
        <mxCell id="02wQNuSsJwhFSokIO_tN-36" value="autoscaler" style="rounded=0;whiteSpace=wrap;html=1;fillColor=#fff2cc;strokeColor=#d6b656;" parent="1" vertex="1">
          <mxGeometry x="127.5" y="420" width="92.5" height="30" as="geometry" />
        </mxCell>
        <mxCell id="02wQNuSsJwhFSokIO_tN-86" style="edgeStyle=orthogonalEdgeStyle;rounded=0;orthogonalLoop=1;jettySize=auto;html=1;exitX=1;exitY=0.5;exitDx=0;exitDy=0;entryX=0;entryY=0.75;entryDx=0;entryDy=0;startArrow=classic;startFill=1;endArrow=none;endFill=0;" parent="1" source="02wQNuSsJwhFSokIO_tN-37" target="02wQNuSsJwhFSokIO_tN-70" edge="1">
          <mxGeometry relative="1" as="geometry">
            <Array as="points">
              <mxPoint x="360" y="485" />
              <mxPoint x="360" y="560" />
              <mxPoint x="630" y="560" />
              <mxPoint x="630" y="468" />
            </Array>
          </mxGeometry>
        </mxCell>
        <mxCell id="02wQNuSsJwhFSokIO_tN-37" value="loadbalancer" style="rounded=0;whiteSpace=wrap;html=1;fillColor=#fff2cc;strokeColor=#d6b656;" parent="1" vertex="1">
          <mxGeometry x="127.5" y="470" width="92.5" height="30" as="geometry" />
        </mxCell>
        <mxCell id="02wQNuSsJwhFSokIO_tN-38" value="QoS" style="text;html=1;strokeColor=none;fillColor=none;align=center;verticalAlign=middle;whiteSpace=wrap;rounded=0;" parent="1" vertex="1">
          <mxGeometry x="125" y="400" width="40" height="20" as="geometry" />
        </mxCell>
        <mxCell id="02wQNuSsJwhFSokIO_tN-76" style="edgeStyle=orthogonalEdgeStyle;rounded=0;orthogonalLoop=1;jettySize=auto;html=1;exitX=1;exitY=0.5;exitDx=0;exitDy=0;entryX=0;entryY=0.5;entryDx=0;entryDy=0;startArrow=classic;startFill=1;" parent="1" source="02wQNuSsJwhFSokIO_tN-39" target="02wQNuSsJwhFSokIO_tN-62" edge="1">
          <mxGeometry relative="1" as="geometry">
            <Array as="points">
              <mxPoint x="610" y="480" />
              <mxPoint x="610" y="543" />
              <mxPoint x="640" y="543" />
            </Array>
          </mxGeometry>
        </mxCell>
        <mxCell id="02wQNuSsJwhFSokIO_tN-96" style="edgeStyle=orthogonalEdgeStyle;rounded=0;orthogonalLoop=1;jettySize=auto;html=1;exitX=0.5;exitY=1;exitDx=0;exitDy=0;entryX=0.5;entryY=0;entryDx=0;entryDy=0;startArrow=classic;startFill=1;endArrow=none;endFill=0;" parent="1" source="02wQNuSsJwhFSokIO_tN-39" target="02wQNuSsJwhFSokIO_tN-87" edge="1">
          <mxGeometry relative="1" as="geometry">
            <Array as="points">
              <mxPoint x="505" y="680" />
              <mxPoint x="280" y="680" />
            </Array>
          </mxGeometry>
        </mxCell>
        <mxCell id="02wQNuSsJwhFSokIO_tN-97" style="edgeStyle=orthogonalEdgeStyle;rounded=0;orthogonalLoop=1;jettySize=auto;html=1;exitX=0.5;exitY=1;exitDx=0;exitDy=0;entryX=0.5;entryY=0;entryDx=0;entryDy=0;startArrow=classic;startFill=1;endArrow=none;endFill=0;" parent="1" source="02wQNuSsJwhFSokIO_tN-39" target="02wQNuSsJwhFSokIO_tN-91" edge="1">
          <mxGeometry relative="1" as="geometry">
            <Array as="points">
              <mxPoint x="505" y="680" />
              <mxPoint x="720" y="680" />
            </Array>
          </mxGeometry>
        </mxCell>
        <mxCell id="02wQNuSsJwhFSokIO_tN-39" value="" style="rounded=0;whiteSpace=wrap;html=1;fillColor=#f8cecc;strokeColor=#b85450;" parent="1" vertex="1">
          <mxGeometry x="455" y="450" width="100" height="60" as="geometry" />
        </mxCell>
        <mxCell id="02wQNuSsJwhFSokIO_tN-40" value="mongoapi" style="rounded=0;whiteSpace=wrap;html=1;fillColor=#fff2cc;strokeColor=#d6b656;" parent="1" vertex="1">
          <mxGeometry x="465" y="460" width="82.5" height="40" as="geometry" />
        </mxCell>
        <mxCell id="02wQNuSsJwhFSokIO_tN-62" value="" style="rounded=0;whiteSpace=wrap;html=1;fillColor=#f8cecc;strokeColor=#b85450;" parent="1" vertex="1">
          <mxGeometry x="650" y="512.5" width="120" height="60" as="geometry" />
        </mxCell>
        <mxCell id="02wQNuSsJwhFSokIO_tN-63" value="" style="rounded=0;whiteSpace=wrap;html=1;fillColor=#fff2cc;strokeColor=#d6b656;" parent="1" vertex="1">
          <mxGeometry x="660" y="517.5" width="100" height="50" as="geometry" />
        </mxCell>
        <mxCell id="02wQNuSsJwhFSokIO_tN-59" value="InternalDB" style="strokeWidth=2;html=1;shape=mxgraph.flowchart.database;whiteSpace=wrap;fillColor=#d5e8d4;strokeColor=#82b366;" parent="1" vertex="1">
          <mxGeometry x="670" y="522.5" width="80" height="40" as="geometry" />
        </mxCell>
        <mxCell id="02wQNuSsJwhFSokIO_tN-70" value="" style="rounded=0;whiteSpace=wrap;html=1;fillColor=#f8cecc;strokeColor=#b85450;" parent="1" vertex="1">
          <mxGeometry x="650" y="422.5" width="120" height="60" as="geometry" />
        </mxCell>
        <mxCell id="02wQNuSsJwhFSokIO_tN-71" value="" style="rounded=0;whiteSpace=wrap;html=1;fillColor=#fff2cc;strokeColor=#d6b656;" parent="1" vertex="1">
          <mxGeometry x="660" y="427.5" width="100" height="50" as="geometry" />
        </mxCell>
        <mxCell id="02wQNuSsJwhFSokIO_tN-72" value="Elasticsearch" style="strokeWidth=2;html=1;shape=mxgraph.flowchart.database;whiteSpace=wrap;fillColor=#d5e8d4;strokeColor=#82b366;" parent="1" vertex="1">
          <mxGeometry x="670" y="432.5" width="80" height="40" as="geometry" />
        </mxCell>
        <mxCell id="02wQNuSsJwhFSokIO_tN-73" value="" style="rounded=0;whiteSpace=wrap;html=1;fillColor=#f8cecc;strokeColor=#b85450;" parent="1" vertex="1">
          <mxGeometry x="790" y="462.5" width="120" height="60" as="geometry" />
        </mxCell>
        <mxCell id="02wQNuSsJwhFSokIO_tN-74" value="" style="rounded=0;whiteSpace=wrap;html=1;fillColor=#fff2cc;strokeColor=#d6b656;" parent="1" vertex="1">
          <mxGeometry x="800" y="467.5" width="100" height="50" as="geometry" />
        </mxCell>
        <mxCell id="02wQNuSsJwhFSokIO_tN-75" value="&lt;div&gt;BusinessDB&lt;/div&gt;" style="strokeWidth=2;html=1;shape=mxgraph.flowchart.database;whiteSpace=wrap;fillColor=#d5e8d4;strokeColor=#82b366;" parent="1" vertex="1">
          <mxGeometry x="810" y="472.5" width="85" height="40" as="geometry" />
        </mxCell>
        <mxCell id="02wQNuSsJwhFSokIO_tN-87" value="" style="rounded=0;whiteSpace=wrap;html=1;fillColor=#f8cecc;strokeColor=#b85450;" parent="1" vertex="1">
          <mxGeometry x="230" y="600" width="100" height="50" as="geometry" />
        </mxCell>
        <mxCell id="02wQNuSsJwhFSokIO_tN-88" value="consumer" style="rounded=0;whiteSpace=wrap;html=1;fillColor=#fff2cc;strokeColor=#d6b656;" parent="1" vertex="1">
          <mxGeometry x="240" y="610" width="80" height="35" as="geometry" />
        </mxCell>
        <mxCell id="02wQNuSsJwhFSokIO_tN-93" style="edgeStyle=orthogonalEdgeStyle;rounded=0;orthogonalLoop=1;jettySize=auto;html=1;exitX=0;exitY=0.5;exitDx=0;exitDy=0;entryX=1;entryY=0.5;entryDx=0;entryDy=0;startArrow=none;startFill=0;endArrow=classic;endFill=1;" parent="1" source="02wQNuSsJwhFSokIO_tN-89" target="02wQNuSsJwhFSokIO_tN-87" edge="1">
          <mxGeometry relative="1" as="geometry" />
        </mxCell>
        <mxCell id="02wQNuSsJwhFSokIO_tN-94" style="edgeStyle=orthogonalEdgeStyle;rounded=0;orthogonalLoop=1;jettySize=auto;html=1;exitX=1;exitY=0.5;exitDx=0;exitDy=0;entryX=0;entryY=0.5;entryDx=0;entryDy=0;startArrow=classic;startFill=1;endArrow=none;endFill=0;" parent="1" source="02wQNuSsJwhFSokIO_tN-89" target="02wQNuSsJwhFSokIO_tN-91" edge="1">
          <mxGeometry relative="1" as="geometry" />
        </mxCell>
        <mxCell id="02wQNuSsJwhFSokIO_tN-89" value="" style="rounded=0;whiteSpace=wrap;html=1;fillColor=#f8cecc;strokeColor=#b85450;" parent="1" vertex="1">
          <mxGeometry x="450" y="600" width="105" height="50" as="geometry" />
        </mxCell>
        <mxCell id="02wQNuSsJwhFSokIO_tN-90" value="RabbitMQ" style="rounded=0;whiteSpace=wrap;html=1;fillColor=#fff2cc;strokeColor=#d6b656;" parent="1" vertex="1">
          <mxGeometry x="460" y="610" width="85" height="35" as="geometry" />
        </mxCell>
        <mxCell id="02wQNuSsJwhFSokIO_tN-91" value="" style="rounded=0;whiteSpace=wrap;html=1;fillColor=#f8cecc;strokeColor=#b85450;" parent="1" vertex="1">
          <mxGeometry x="660" y="600" width="100" height="50" as="geometry" />
        </mxCell>
        <mxCell id="02wQNuSsJwhFSokIO_tN-92" value="&lt;div&gt;producer&lt;/div&gt;" style="rounded=0;whiteSpace=wrap;html=1;fillColor=#fff2cc;strokeColor=#d6b656;" parent="1" vertex="1">
          <mxGeometry x="670" y="610" width="80" height="35" as="geometry" />
        </mxCell>
        <mxCell id="02wQNuSsJwhFSokIO_tN-112" style="edgeStyle=orthogonalEdgeStyle;rounded=0;orthogonalLoop=1;jettySize=auto;html=1;exitX=0.487;exitY=-0.002;exitDx=0;exitDy=0;entryX=0.5;entryY=1;entryDx=0;entryDy=0;startArrow=classic;startFill=1;endArrow=none;endFill=0;exitPerimeter=0;" parent="1" source="02wQNuSsJwhFSokIO_tN-98" target="02wQNuSsJwhFSokIO_tN-37" edge="1">
          <mxGeometry relative="1" as="geometry">
            <Array as="points" />
          </mxGeometry>
        </mxCell>
        <mxCell id="02wQNuSsJwhFSokIO_tN-98" value="" style="rounded=0;whiteSpace=wrap;html=1;fillColor=#f8cecc;strokeColor=#b85450;" parent="1" vertex="1">
          <mxGeometry x="125" y="525" width="100" height="42.5" as="geometry" />
        </mxCell>
        <mxCell id="02wQNuSsJwhFSokIO_tN-99" value="gateway" style="rounded=0;whiteSpace=wrap;html=1;fillColor=#fff2cc;strokeColor=#d6b656;" parent="1" vertex="1">
          <mxGeometry x="130" y="532.5" width="90" height="27.5" as="geometry" />
        </mxCell>
        <mxCell id="02wQNuSsJwhFSokIO_tN-102" value="" style="ellipse;whiteSpace=wrap;html=1;fillColor=#dae8fc;strokeColor=#6c8ebf;" parent="1" vertex="1">
          <mxGeometry x="645" y="730" width="130" height="100" as="geometry" />
        </mxCell>
        <mxCell id="02wQNuSsJwhFSokIO_tN-113" style="edgeStyle=orthogonalEdgeStyle;rounded=0;orthogonalLoop=1;jettySize=auto;html=1;exitX=1;exitY=0.5;exitDx=0;exitDy=0;entryX=1;entryY=0.5;entryDx=0;entryDy=0;startArrow=classic;startFill=1;endArrow=none;endFill=0;" parent="1" source="02wQNuSsJwhFSokIO_tN-104" target="02wQNuSsJwhFSokIO_tN-92" edge="1">
          <mxGeometry relative="1" as="geometry">
            <Array as="points">
              <mxPoint x="770" y="780" />
              <mxPoint x="770" y="628" />
            </Array>
          </mxGeometry>
        </mxCell>
        <mxCell id="02wQNuSsJwhFSokIO_tN-104" value="registry" style="rounded=0;whiteSpace=wrap;html=1;fillColor=#ffe6cc;strokeColor=#d79b00;" parent="1" vertex="1">
          <mxGeometry x="675" y="762.5" width="70" height="35" as="geometry" />
        </mxCell>
        <mxCell id="02wQNuSsJwhFSokIO_tN-106" value="Docker registry" style="text;html=1;strokeColor=none;fillColor=none;align=center;verticalAlign=middle;whiteSpace=wrap;rounded=0;" parent="1" vertex="1">
          <mxGeometry x="660" y="740" width="110" height="20" as="geometry" />
        </mxCell>
        <mxCell id="02wQNuSsJwhFSokIO_tN-107" value="" style="ellipse;whiteSpace=wrap;html=1;fillColor=#dae8fc;strokeColor=#6c8ebf;" parent="1" vertex="1">
          <mxGeometry x="270" y="730" width="130" height="100" as="geometry" />
        </mxCell>
        <mxCell id="02wQNuSsJwhFSokIO_tN-108" value="nfs-server-alpine" style="rounded=0;whiteSpace=wrap;html=1;fillColor=#ffe6cc;strokeColor=#d79b00;" parent="1" vertex="1">
          <mxGeometry x="300" y="762.5" width="70" height="35" as="geometry" />
        </mxCell>
        <mxCell id="02wQNuSsJwhFSokIO_tN-109" value="Master" style="text;html=1;strokeColor=none;fillColor=none;align=center;verticalAlign=middle;whiteSpace=wrap;rounded=0;" parent="1" vertex="1">
          <mxGeometry x="280" y="740" width="110" height="20" as="geometry" />
        </mxCell>
        <mxCell id="16ojOGsa4zFmsmmyJ8rt-1" value="Container" style="rounded=0;whiteSpace=wrap;html=1;fillColor=#fff2cc;strokeColor=#d6b656;" vertex="1" parent="1">
          <mxGeometry x="950" y="350" width="90" height="40" as="geometry" />
        </mxCell>
        <mxCell id="16ojOGsa4zFmsmmyJ8rt-2" value="&lt;div&gt;DaemonSet&lt;/div&gt;" style="rounded=0;whiteSpace=wrap;html=1;fillColor=#e1d5e7;strokeColor=#9673a6;" vertex="1" parent="1">
          <mxGeometry x="950" y="450" width="90" height="40" as="geometry" />
        </mxCell>
        <mxCell id="16ojOGsa4zFmsmmyJ8rt-3" value="Pod" style="rounded=0;whiteSpace=wrap;html=1;fillColor=#f8cecc;strokeColor=#b85450;" vertex="1" parent="1">
          <mxGeometry x="950" y="400" width="90" height="40" as="geometry" />
        </mxCell>
        <mxCell id="16ojOGsa4zFmsmmyJ8rt-4" value="&lt;div&gt;Host&lt;/div&gt;" style="ellipse;whiteSpace=wrap;html=1;fillColor=#dae8fc;strokeColor=#6c8ebf;" vertex="1" parent="1">
          <mxGeometry x="950" y="550" width="90" height="50" as="geometry" />
        </mxCell>
        <mxCell id="16ojOGsa4zFmsmmyJ8rt-5" value="&lt;div&gt;Database&lt;/div&gt;" style="strokeWidth=2;html=1;shape=mxgraph.flowchart.database;whiteSpace=wrap;fillColor=#d5e8d4;strokeColor=#82b366;" vertex="1" parent="1">
          <mxGeometry x="950" y="500" width="85" height="40" as="geometry" />
        </mxCell>
      </root>
    </mxGraphModel>
  </diagram>
</mxfile>
